<?xml version="1.0" standalone="no"?>
<!DOCTYPE svg PUBLIC "-//W3C//DTD SVG 20010904//EN"
 "http://www.w3.org/TR/2001/REC-SVG-20010904/DTD/svg10.dtd">
<svg version="1.0" xmlns="http://www.w3.org/2000/svg"
 width="600.000000pt" height="600.000000pt" viewBox="0 0 600.000000 600.000000"
 preserveAspectRatio="xMidYMid meet">
<metadata>
Created by potrace 1.14, written by Peter Selinger 2001-2017
</metadata>
<g transform="translate(0.000000,600.000000) scale(0.100000,-0.100000)"
fill="#000000" stroke="none">
<path d="M2665 5984 c-569 -68 -1103 -291 -1545 -644 -134 -107 -352 -325
-458 -458 -562 -703 -779 -1598 -602 -2482 92 -458 303 -908 600 -1280 108
-135 325 -352 460 -460 699 -559 1598 -777 2480 -600 458 92 908 303 1280 600
135 108 352 325 460 460 559 699 777 1598 600 2480 -92 458 -303 908 -600
1280 -108 135 -325 352 -460 460 -447 358 -981 578 -1560 645 -167 19 -490 18
-655 -1z m1822 -1048 c27 -32 37 -67 29 -101 -4 -14 -65 -89 -137 -166 -484
-524 -763 -945 -1419 -2139 -666 -1211 -867 -1499 -1032 -1477 -84 11 -150
109 -223 329 -138 420 -173 1058 -90 1624 53 356 134 658 339 1251 36 105 66
202 66 216 0 24 -5 26 -57 33 -85 10 -435 -3 -538 -20 -283 -49 -445 -138
-517 -284 -30 -61 -33 -75 -33 -157 1 -252 183 -478 505 -628 71 -33 98 -50
108 -71 40 -89 -25 -186 -118 -173 -21 3 -83 28 -140 56 -372 186 -582 477
-584 811 0 59 5 129 13 160 69 276 324 449 761 515 142 22 483 31 580 16 155
-24 237 -92 247 -208 9 -96 -34 -247 -206 -726 -98 -271 -157 -512 -200 -814
-31 -216 -41 -374 -41 -652 0 -284 12 -469 40 -636 28 -165 100 -380 124 -372
19 6 188 265 313 482 66 116 246 433 398 705 322 575 401 712 542 948 337 564
703 1061 1030 1401 l110 114 53 -5 c42 -4 59 -11 77 -32z m-617 -2492 c100
-11 316 -24 400 -24 52 -1 122 -8 155 -16 33 -9 78 -19 100 -24 59 -12 158
-46 207 -71 151 -76 333 -266 321 -334 -3 -14 -2 -16 5 -7 7 11 12 11 23 -1 8
-8 38 -17 67 -21 29 -3 74 -9 102 -12 68 -9 76 -22 42 -69 -15 -21 -41 -53
-59 -70 -28 -29 -31 -37 -26 -74 4 -26 1 -46 -7 -56 -16 -20 -31 -19 -23 0 7
19 -72 95 -98 95 -27 0 -50 11 -43 21 3 5 17 9 31 9 27 0 143 65 143 81 0 12
-9 13 -125 14 l-99 0 -8 43 c-8 50 -109 208 -139 217 -11 4 -40 22 -65 42 -51
38 -236 117 -299 126 -22 3 -72 13 -110 21 -42 9 -117 15 -185 15 -63 -1 -149
0 -190 2 -231 10 -347 -3 -456 -49 -147 -62 -167 -78 -219 -183 -19 -36 -44
-79 -58 -95 -34 -42 -67 -99 -67 -116 0 -8 -11 -31 -25 -51 -13 -20 -38 -85
-55 -144 -27 -92 -30 -117 -24 -173 14 -134 66 -240 135 -276 36 -18 192 -73
239 -84 19 -4 62 -15 95 -24 33 -9 125 -23 205 -31 182 -19 589 -29 639 -15
20 5 70 14 111 20 125 18 268 64 381 125 106 56 204 129 235 173 23 34 25 88
4 107 -17 15 -20 14 -53 -17 -75 -72 -417 -260 -497 -274 -19 -3 -78 -17 -130
-32 -87 -23 -112 -26 -295 -26 -117 -1 -235 4 -285 12 -47 7 -113 17 -146 23
-55 8 -113 28 -181 61 -13 6 -19 16 -16 25 7 17 -4 18 258 -27 186 -32 365
-41 391 -19 7 6 17 8 22 5 9 -5 16 82 15 166 -1 26 -13 74 -28 110 -15 34 -30
81 -34 103 -11 56 -62 153 -108 201 -29 31 -57 47 -118 68 -75 27 -87 28 -185
22 -58 -3 -120 -9 -137 -12 -28 -5 -33 -3 -33 14 0 11 6 24 13 31 24 19 150
43 232 42 68 0 90 -5 150 -32 82 -37 186 -109 209 -144 9 -13 16 -37 16 -53 0
-15 11 -72 25 -125 48 -182 50 -284 10 -381 -8 -17 -2 -18 131 -11 104 5 160
13 222 32 79 23 83 26 63 40 -20 13 -71 87 -99 143 -22 44 -36 65 -73 110 -20
25 -42 61 -48 81 -7 20 -25 47 -41 59 -32 25 -39 47 -16 56 8 3 12 13 9 23 -3
13 11 28 51 55 l55 38 -6 87 c-4 79 -3 88 18 113 24 30 37 28 85 -17 14 -13
48 -31 75 -40 27 -9 49 -21 49 -26 0 -5 7 -9 16 -9 29 0 10 -34 -25 -44 -27
-8 -35 -7 -43 7 -7 14 -96 67 -112 67 -2 0 -3 -26 -2 -59 3 -53 6 -62 40 -96
24 -24 36 -44 34 -58 -3 -18 -11 -21 -73 -24 -38 -2 -76 -5 -82 -8 -17 -6 -6
-64 17 -90 9 -11 22 -34 28 -51 5 -18 26 -48 45 -67 37 -38 52 -70 62 -131 10
-61 45 -86 121 -86 54 0 72 5 121 34 32 19 101 77 153 128 56 56 107 98 124
102 95 24 135 -94 74 -218 -30 -61 -224 -203 -376 -276 -139 -67 -481 -116
-735 -106 -82 3 -152 8 -155 10 -4 2 -65 7 -137 11 -71 4 -161 13 -200 22 -38
8 -92 18 -120 23 -252 43 -320 81 -407 227 -67 111 -75 161 -47 289 26 123
121 402 161 474 50 90 99 148 173 204 131 98 179 124 272 145 85 19 109 20
243 5z m757 -761 c36 -8 56 -40 61 -96 4 -52 -12 -116 -26 -102 -4 4 -7 37 -7
73 0 64 -1 67 -30 81 -40 19 -66 42 -59 53 3 5 13 6 23 2 9 -3 26 -9 38 -11z
m340 -97 c27 0 31 -2 21 -14 -9 -11 -26 -13 -65 -9 l-53 6 -11 -44 c-7 -27
-20 -50 -35 -60 -13 -8 -24 -22 -24 -30 0 -17 -39 -35 -76 -35 -13 0 -24 5
-24 12 0 6 -8 20 -17 30 -13 14 -14 21 -5 30 9 9 17 7 32 -10 23 -24 24 -25
58 -16 25 7 68 88 81 153 1 2 20 0 44 -5 23 -4 57 -8 74 -8z"/>
</g>
</svg>
